<?xml version="1.0" standalone="no"?>
<!DOCTYPE svg PUBLIC "-//W3C//DTD SVG 20010904//EN"
 "http://www.w3.org/TR/2001/REC-SVG-20010904/DTD/svg10.dtd">
<svg version="1.0" xmlns="http://www.w3.org/2000/svg"
 width="364.000000pt" height="135.000000pt"   viewBox="0 0 364.000000 135.000000"
 preserveAspectRatio="xMidYMid meet">
<metadata>
Created by potrace 1.16, written by Peter Selinger 2001-2019
</metadata>
<g transform="translate(0.000000,135.000000) scale(0.100000,-0.100000)"
fill="#bafb79" stroke="none">
<path d="M3050 1333 l-445 -3 -12 -27 c-7 -15 -13 -34 -13 -44 0 -22 43 -67
72 -74 13 -4 177 -5 364 -3 l340 3 -50 -40 c-28 -22 -83 -67 -122 -100 -39
-33 -88 -73 -109 -90 -21 -16 -43 -35 -49 -40 -12 -11 -175 -148 -247 -206
-24 -20 -64 -53 -87 -73 -24 -20 -47 -36 -50 -36 -4 0 -17 -15 -30 -34 -21
-31 -23 -44 -20 -129 1 -53 4 -94 7 -92 2 3 17 -21 32 -53 16 -31 34 -65 41
-75 14 -21 88 -97 91 -94 7 6 45 -31 39 -38 -4 -5 -1 -5 5 -1 14 8 75 -23 68
-34 -2 -3 13 -7 33 -7 20 -1 38 -6 40 -12 5 -14 318 -15 327 -1 3 5 12 7 20 3
8 -3 15 0 15 7 0 7 8 10 20 7 11 -3 18 -2 15 2 -2 5 8 14 23 21 15 8 51 31 80
52 29 22 57 36 62 33 5 -3 8 0 5 7 -3 7 7 27 22 44 16 17 43 59 61 93 28 55
32 72 32 141 0 75 -1 78 -25 84 -14 4 -23 11 -20 16 3 6 -3 10 -14 10 -12 0
-21 -4 -21 -10 0 -5 -6 -10 -13 -10 -18 0 -47 -53 -47 -85 0 -28 -38 -125 -49
-125 -4 0 -15 -14 -25 -31 -11 -19 -23 -28 -32 -25 -8 3 -13 2 -10 -3 7 -10
-32 -47 -40 -38 -3 3 -15 -3 -27 -13 -11 -11 -24 -17 -29 -14 -4 3 -8 0 -8 -7
0 -7 -10 -9 -25 -7 -13 3 -22 1 -19 -3 3 -5 -3 -9 -13 -10 -10 0 -39 -2 -64
-5 -97 -9 -281 39 -262 69 3 6 1 7 -5 3 -30 -18 -151 139 -136 178 3 8 -2 23
-11 33 -16 16 -14 19 31 59 27 24 57 43 67 44 10 0 16 4 13 9 -4 5 31 40 76
78 46 37 94 78 108 90 14 13 33 23 43 23 10 0 16 4 13 9 -3 4 6 19 19 31 14
13 25 21 25 18 0 -3 18 12 40 34 23 21 47 38 55 38 7 0 16 8 20 18 5 15 116
111 122 105 1 -1 17 12 35 30 64 62 123 107 135 103 7 -3 10 1 6 10 -3 7 -1
14 3 14 5 0 26 16 47 34 30 28 37 41 37 71 0 20 -7 43 -15 51 -20 20 -42 21
-565 17z"/>
<path d="M2170 1045 l0 -74 -42 19 c-53 24 -70 25 -114 4 -60 -29 -64 -48 -64
-288 0 -133 4 -224 11 -239 25 -55 116 -74 177 -37 26 16 32 17 32 5 0 -12 17
-15 90 -15 l90 0 0 350 0 350 -90 0 -90 0 0 -75z m0 -340 c0 -175 -1 -185 -19
-185 -11 0 -21 9 -25 23 -8 29 -8 311 0 331 3 9 15 16 25 16 18 0 19 -10 19
-185z"/>
<path d="M310 1065 l0 -45 100 0 100 0 -2 45 -1 45 -99 0 -98 0 0 -45z"/>
<path d="M760 1000 c0 -5 -6 -10 -14 -10 -7 0 -25 -9 -40 -21 l-26 -20 0 25
c0 26 0 26 -85 26 l-85 0 0 -290 0 -290 85 0 85 0 2 233 3 232 23 3 22 3 0
-235 0 -236 90 0 90 0 1 208 c1 114 0 219 -1 235 -1 21 3 27 18 27 28 0 32
-32 32 -266 l0 -204 85 0 85 0 0 62 0 62 23 -44 c33 -64 65 -84 147 -88 124
-7 177 16 216 95 l19 38 3 -62 3 -63 84 0 85 0 0 220 c0 135 4 220 10 220 5 0
7 7 4 15 -4 10 0 15 15 15 20 0 21 -4 23 -232 l3 -233 88 -3 89 -3 -4 261 -3
262 -32 29 c-57 50 -106 51 -164 2 -27 -23 -30 -24 -21 -6 15 28 1 33 -98 33
l-79 0 -3 -61 -3 -61 -32 45 c-24 35 -43 49 -87 66 -69 26 -98 26 -156 3 -76
-29 -107 -59 -120 -114 -7 -29 -8 -30 -9 -7 -2 51 -23 90 -62 115 -39 24 -89
32 -89 14 0 -5 -6 -10 -14 -10 -7 0 -24 -10 -38 -23 l-25 -23 -27 23 c-15 13
-34 23 -42 23 -8 0 -14 5 -14 10 0 6 -13 10 -30 10 -16 0 -30 -4 -30 -10z
m594 -132 c3 -13 6 -90 6 -171 0 -155 -9 -199 -36 -176 -11 9 -14 47 -14 184
0 94 3 175 7 178 13 14 31 6 37 -15z"/>
<path d="M40 992 c-1 -4 -2 -33 -3 -64 l-2 -58 57 0 56 0 -49 -127 c-76 -194
-79 -204 -79 -265 l0 -58 240 0 240 0 0 274 c0 151 -3 282 -6 290 -6 15 -33
17 -230 16 -123 -1 -224 -4 -224 -8z m270 -317 l0 -145 -55 0 c-39 0 -55 4
-55 13 0 7 15 51 33 98 19 46 42 105 51 132 10 26 20 47 22 47 2 0 4 -65 4
-145z"/>
<path d="M2753 987 c-54 -52 -63 -63 -63 -74 0 -7 -4 -13 -10 -13 -5 0 -10 -7
-10 -15 0 -8 3 -15 8 -15 4 0 12 -10 17 -22 14 -31 72 -68 106 -68 35 0 84 48
93 91 7 38 -18 89 -52 104 -12 5 -22 13 -22 17 0 13 -54 8 -67 -5z"/>
<path d="M3435 989 c-5 -5 -22 -19 -37 -30 -16 -11 -28 -29 -28 -40 0 -10 -4
-19 -10 -19 -5 0 -10 -7 -10 -15 0 -8 4 -15 8 -15 5 0 14 -16 22 -35 7 -19 16
-32 20 -30 4 2 16 -2 26 -10 36 -27 78 -19 118 25 30 34 35 44 29 72 -3 18 -6
37 -7 43 -1 13 -41 45 -55 45 -6 0 -11 5 -11 10 0 13 -52 12 -65 -1z"/>
</g>
</svg>
